<?xml version="1.0" standalone="no"?>
<!DOCTYPE svg PUBLIC "-//W3C//DTD SVG 20010904//EN"
 "http://www.w3.org/TR/2001/REC-SVG-20010904/DTD/svg10.dtd">
<svg version="1.0" xmlns="http://www.w3.org/2000/svg"
 width="585.000000pt" height="585.000000pt" viewBox="0 0 585.000000 585.000000"
 preserveAspectRatio="xMidYMid meet">
<metadata>
Created by potrace 1.11, written by Peter Selinger 2001-2013
</metadata>
<g transform="translate(0.000000,585.000000) scale(0.100000,-0.100000)"
fill="#000000" stroke="none">
<path d="M3207 4174 c-1 -1 -40 -4 -87 -7 -233 -16 -454 -119 -628 -295 l-83
-84 -772 -3 c-425 -1 -785 -5 -802 -9 -16 -4 -57 -13 -90 -21 -157 -36 -320
-130 -449 -258 -154 -152 -244 -323 -280 -533 -22 -126 -18 -393 9 -512 43
-192 129 -348 269 -488 160 -161 341 -250 571 -283 71 -10 1906 -7 1950 3 83
19 146 37 181 51 142 57 275 147 375 253 l65 69 745 1 c724 0 809 2 894 23
402 97 696 417 761 829 10 65 11 291 2 379 -49 462 -427 835 -888 877 -59 5
-1737 13 -1743 8z m1648 -607 c144 -21 275 -118 340 -252 40 -83 52 -138 49
-220 -7 -161 -100 -308 -243 -384 -101 -53 -109 -54 -758 -55 l-603 -1 0 30
c-1 16 -3 82 -5 145 -8 213 -74 398 -205 575 -8 11 -48 53 -87 93 -40 40 -73
74 -73 75 0 5 1550 -1 1585 -6z m-2648 -483 c3 -300 92 -527 284 -726 l87 -89
-807 3 c-796 3 -807 3 -863 24 -318 121 -409 520 -172 758 59 59 174 119 244
128 14 2 295 4 626 4 l601 1 0 -103z m686 -24 c53 -48 90 -104 116 -173 20
-55 36 -167 24 -167 -9 0 -86 63 -110 90 -62 68 -113 194 -113 278 l0 45 23
-19 c12 -10 39 -34 60 -54z"/>
</g>
</svg>
